<?xml version="1.0" encoding="utf-8"?>
<!-- Generator: Adobe Illustrator 22.1.0, SVG Export Plug-In . SVG Version: 6.00 Build 0)  -->
<svg version="1.1" id="Layer_1" xmlns="http://www.w3.org/2000/svg" xmlns:xlink="http://www.w3.org/1999/xlink" x="0px" y="0px"
	 viewBox="0 0 265 28" style="enable-background:new 0 0 265 28;" xml:space="preserve">
<style type="text/css">
	.st0{fill:none;}
	.st1{fill:#FDFDFE;}
	.st2{filter:url(#Adobe_OpacityMaskFilter);}
	.st3{fill:#FFFFFF;}
	.st4{mask:url(#mask-2_1_);fill:#FDFDFE;}
	.st5{enable-background:new    ;}
</style>
<title>Components/Logo/Desktop</title>
<desc>Created with Sketch.</desc>
<rect id="Rectangle" class="st0" width="263.9" height="27.6"/>
<g id="BBVA" transform="translate(0.000000, 5.000000)">
	<g id="Group-3" transform="translate(23.458633, 0.108559)">
		<path id="Fill-1" class="st1" d="M9.5,6.7l2.3-3.3c0.6-0.8,0.7-1.4,0.7-1.9c0-1.6-1.5-3-3.1-3H5.8v19.7h1.9c3.2,0,5.7-1.7,5.7-5.8
			C13.4,9,11.8,7.3,9.5,6.7 M10.8,21.7H-0.6V-5.1h11.8c5.5,0,7.5,4.5,4.7,8.6l-1.3,1.9C23.8,10.2,20.8,21.7,10.8,21.7"/>
	</g>
	<g id="Group-6" transform="translate(0.000000, 0.108559)">
		<path id="Fill-4" class="st1" d="M10,6.7l2.3-3.3C12.8,2.5,13,2,13,1.4c0-1.6-1.5-3-3.1-3H6.4v19.7h1.9c3.2,0,5.7-1.7,5.7-5.8
			C14,9,12.4,7.3,10,6.7 M0,21.7V-5.1h11.8c5.5,0,7.5,4.5,4.7,8.6l-1.3,1.9c9.3,4.8,6.3,16.3-3.7,16.3H0z"/>
	</g>
	<g id="Group-9" transform="translate(42.862688, 0.108559)">
		<g id="Clip-8">
		</g>
		<defs>
			<filter id="Adobe_OpacityMaskFilter" filterUnits="userSpaceOnUse" x="-1" y="-5.1" width="23.6" height="26.8">
				<feColorMatrix  type="matrix" values="1 0 0 0 0  0 1 0 0 0  0 0 1 0 0  0 0 0 1 0"/>
			</filter>
		</defs>
		<mask maskUnits="userSpaceOnUse" x="-1" y="-5.1" width="23.6" height="26.8" id="mask-2_1_">
			<g class="st2">
				<polygon id="path-1_1_" class="st3" points="22.6,-5.1 -1,-5.1 -1,21.7 22.6,21.7 				"/>
			</g>
		</mask>
		<path id="Fill-7" class="st4" d="M18.3-5.1h4.3l-8.3,26.8l-6.5,0L-1-5.1l4.8,0c1.8,0,2.3,0.5,3.3,3.5l5.1,16.9L18.3-5.1z"/>
	</g>
	<path id="Fill-10" class="st1" d="M69.5,12.1l3.7-12.2l3.7,12.2H69.5z M79-2.3C78.3-4.5,77.7-5,75.7-5l-5.2,0l-8.3,26.8h4.2
		l1.8-5.8h9.8l1.8,5.8h7.3L79-2.3z"/>
</g>
<g class="st5">
	<path class="st3" d="M97.6,26.6V0.8h8.7c6.1,0,8.7,2.7,8.7,6.5c0,3.4-2.3,5.4-5,6v0.1c3.2,0.6,5.9,2.7,5.9,6.3c0,3.8-2.5,7-8.7,7
		H97.6z M99.3,12.5h6.8c4.4,0,7.1-1.6,7.1-5.1c0-3.5-2.2-5-6.9-5h-6.9V12.5z M99.3,25h7.9c4.7,0,6.9-2,6.9-5.4c0-3.8-3-5.5-7.8-5.5
		h-7V25z"/>
	<path class="st3" d="M119.7,22.4c0-3.5,3-6.1,12.6-7.7v-1.1c0-2.8-1.5-4.2-4-4.2c-3,0-5.1,1.2-7.1,3l-1-1c2.3-2.1,4.6-3.5,8.1-3.5
		c3.8,0,5.6,2.2,5.6,5.6v13.2h-1.5l-0.2-2.7c-2.2,1.9-4.7,3-7.4,3C121.5,26.9,119.7,25.2,119.7,22.4z M132.3,22.3v-6.3
		c-8.9,1.6-10.9,3.8-10.9,6.4c0,2.1,1.4,3.2,3.6,3.2C127.7,25.5,130.2,24.3,132.3,22.3z"/>
	<path class="st3" d="M139.6,26.6V8.3h1.5l0.2,3c2-1.9,4.4-3.4,7.1-3.4c3.8,0,5.6,2.1,5.6,5.4v13.3h-1.7V13.5c0-2.8-1.2-4.2-4-4.2
		c-2.5,0-4.7,1.3-6.9,3.5v13.8H139.6z"/>
	<path class="st3" d="M158.6,17.5c0-6.4,3.8-9.6,7.9-9.6c3.4,0,5.3,1.9,6.5,4.3l-1.4,0.8c-1.1-2.3-2.6-3.6-5.2-3.6
		c-2.8,0-6.2,2.1-6.2,8.1c0,5.1,2.8,8.1,6.1,8.1c2.6,0,4.1-1.2,5.3-3.6l1.3,0.8c-1.5,2.7-3.5,4.3-6.7,4.3
		C162.1,27,158.6,23.3,158.6,17.5z"/>
	<path class="st3" d="M176.6,17.5c0-5.9,3.5-9.6,8.1-9.6c4.5,0,8.1,3.7,8.1,9.6c0,5.8-3.6,9.5-8.1,9.5S176.6,23.3,176.6,17.5z
		 M191.1,17.4c0-4.3-2.2-8.1-6.4-8.1c-3.9,0-6.4,3.5-6.4,8.1c0,4.3,2.2,8.1,6.4,8.1C188.6,25.5,191.1,22.1,191.1,17.4z"/>
	<path class="st3" d="M197.6,26.6V8.3h1.5l0.2,3c2-1.9,4.2-3.4,6.9-3.4c3.1,0,4.6,1.4,5.1,3.5c2.1-1.9,4.4-3.5,7.1-3.5
		c3.8,0,5.3,2.1,5.3,5.4v13.3h-1.7V13.5c0-2.8-1-4.2-3.8-4.2c-2.4,0-4.4,1.3-6.7,3.5v13.8h-1.7V13.5c0-2.8-1-4.2-3.8-4.2
		c-2.4,0-4.4,1.3-6.7,3.5v13.8H197.6z"/>
	<path class="st3" d="M228.3,17.4c0-6.4,3.9-9.5,7.8-9.5c4.3,0,7.3,3.6,7.3,9.4v0.2H230c0,5,2.8,8,6.5,8c2.5,0,4.2-0.9,5.9-2.9
		l1,1.1c-2,2.2-3.8,3.3-6.9,3.3C231.9,27,228.3,23.5,228.3,17.4z M241.6,16.1c-0.2-3.8-2-6.8-5.6-6.8c-2.9,0-5.6,2.2-6,6.8H241.6z"
		/>
	<path class="st3" d="M248.1,26.6V8.3h1.5l0.2,3.8h0.1c1.5-2.4,3.9-4.2,7.5-4.2h0.2l0.1,1.6h-0.8c-3.1,0-5.7,1.8-7.2,5.1v12.1H248.1
		z"/>
</g>
</svg>
